HIERARCHY
ROOT Hips
{
	OFFSET 0.000000 0.000000 0.000000
	CHANNELS 6 Xposition Yposition Zposition Zrotation Yrotation Xrotation 
	JOINT LeftUpLeg_virtual
	{
		OFFSET 0.000000 0.000000 0.000000
		CHANNELS 3 Zrotation Yrotation Xrotation
		JOINT LeftUpLeg
		{
			OFFSET 10.205400 -3.823500 0.155100
			CHANNELS 3 Zrotation Yrotation Xrotation
			JOINT LeftLeg
			{
				OFFSET 0.708757 -12.982077 0.567790
				CHANNELS 3 Zrotation Yrotation Xrotation
				JOINT LeftFoot
				{
					OFFSET -0.708756 -10.717838 -2.184338
					CHANNELS 3 Zrotation Yrotation Xrotation
					JOINT LeftToeBase
					{
						OFFSET 0.108149 -7.191104 7.560241
						CHANNELS 3 Zrotation Yrotation Xrotation
						End Site
						{
							OFFSET 0.000000 0.000000 0.000000
						}
					}
				}
			}
		}
	}
	JOINT RightUpLeg_virtual
	{
		OFFSET 0.000000 0.000000 0.000000
		CHANNELS 3 Zrotation Yrotation Xrotation
		JOINT RightUpLeg
		{
			OFFSET -10.205400 -3.823500 0.005500
			CHANNELS 3 Zrotation Yrotation Xrotation
			JOINT RightLeg
			{
				OFFSET -0.708756 -12.982134 0.610632
				CHANNELS 3 Zrotation Yrotation Xrotation
				JOINT RightFoot
				{
					OFFSET 0.708754 -10.717769 -1.945823
					CHANNELS 3 Zrotation Yrotation Xrotation
					JOINT RightToeBase
					{
						OFFSET -0.108140 -7.191069 7.372968
						CHANNELS 3 Zrotation Yrotation Xrotation
						End Site
						{
							OFFSET 0.000000 0.000000 0.000000
						}
					}
				}
			}
		}
	}
	JOINT Spine_virtual
	{
		OFFSET 0.000000 0.000000 0.000000
		CHANNELS 3 Zrotation Yrotation Xrotation
		JOINT Spine
		{
			OFFSET 0.000000 6.876099 0.125700
			CHANNELS 3 Zrotation Yrotation Xrotation
			JOINT Spine1
			{
				OFFSET 0.000000 8.022060 0.146608
				CHANNELS 3 Zrotation Yrotation Xrotation
				JOINT Spine2
				{
					OFFSET 0.000000 9.168068 0.167552
					CHANNELS 3 Zrotation Yrotation Xrotation
					JOINT Neck_virtual
					{
						OFFSET 0.000000 0.000000 0.000000
						CHANNELS 3 Zrotation Yrotation Xrotation
						JOINT Neck
						{
							OFFSET 0.000000 10.314075 0.188496
							CHANNELS 3 Zrotation Yrotation Xrotation
							JOINT Head
							{
								OFFSET 0.000000 7.643700 -2.377400
								CHANNELS 3 Zrotation Yrotation Xrotation
								End Site
								{
									OFFSET 0.000000 0.000000 0.000000
								}
							}
						}
					}
					JOINT LeftShoulder_virtual
					{
						OFFSET 0.000000 0.000000 0.000000
						CHANNELS 3 Zrotation Yrotation Xrotation
						JOINT LeftShoulder
						{
							OFFSET 4.392200 8.824978 0.174984
							CHANNELS 3 Zrotation Yrotation Xrotation
							JOINT LeftArm
							{
								OFFSET 8.771219 -2.981674 -0.026999
								CHANNELS 3 Zrotation Yrotation Xrotation
								JOINT LeftForeArm
								{
									OFFSET 8.512804 0.000000 -0.000000
									CHANNELS 3 Zrotation Yrotation Xrotation
									JOINT LeftHand
									{
										OFFSET 18.484802 0.000000 -0.000000
										CHANNELS 3 Zrotation Yrotation Xrotation
										End Site
										{
											OFFSET 0.000000 0.000000 0.000000
										}
									}
								}
							}
						}
					}
					JOINT RightShoulder_virtual
					{
						OFFSET 0.000000 0.000000 0.000000
						CHANNELS 3 Zrotation Yrotation Xrotation
						JOINT RightShoulder
						{
							OFFSET -4.392200 8.824993 0.141379
							CHANNELS 3 Zrotation Yrotation Xrotation
							JOINT RightArm
							{
								OFFSET -8.771282 -2.981682 -0.094208
								CHANNELS 3 Zrotation Yrotation Xrotation
								JOINT RightForeArm
								{
									OFFSET -8.494598 0.000000 0.000000
									CHANNELS 3 Zrotation Yrotation Xrotation
									JOINT RightHand
									{
										OFFSET -18.483803 0.000000 0.000001
										CHANNELS 3 Zrotation Yrotation Xrotation
										End Site
										{
											OFFSET 0.000000 0.000000 0.000000
										}
									}
								}
							}
						}
					}
				}
			}
		}
	}
}
MOTION
Frames: 11
Frame Time: 0.033333
0.145582 36.053139 2.263898 179.970089 2.919905 -179.838717 -0.677575 -4.827495 11.803877 -4.906895 -4.040150 -11.751242 8.967698 3.526080 15.946070 -0.922055 1.209187 4.727965 0.000000 0.000000 0.000000 4.217109 -3.739113 11.284488 -4.254537 4.321477 -12.253181 -3.441846 5.735312 18.742755 10.847691 3.583256 -0.555449 0.000000 0.000000 0.000000 3.123806 -0.591533 -1.567003 -2.275585 -0.151565 -8.116567 0.692079 -2.714531 5.807019 0.027140 0.035902 -0.011564 0.037077 -0.438625 8.665014 -1.752957 2.919061 14.054017 0.000000 0.000000 0.000000 1.560610 0.291089 5.747327 -20.184114 -12.321328 4.372556 -47.708567 2.900933 -1.352321 0.572878 -41.794003 0.619252 0.000000 0.000000 0.000000 -2.101594 1.315626 5.339279 25.558189 2.810724 4.907761 44.268864 -10.100656 5.725585 -0.581386 28.312965 -3.531432 0.000000 0.000000 0.000000 
0.172257 36.044521 2.253194 179.958997 2.986920 -179.725568 -0.641430 -4.827541 11.882073 -4.916696 -3.967186 -11.714161 8.916268 3.560245 16.120549 -0.688548 1.304429 4.863922 0.000000 0.000000 0.000000 4.283429 -3.403091 11.318995 -4.169341 4.626715 -12.274240 -3.300385 5.984641 18.380032 11.076217 3.835459 -0.800082 0.000000 0.000000 0.000000 3.093045 -0.470650 -1.685608 -2.262861 -0.152988 -8.130588 0.670353 -2.693053 5.927091 -0.014987 0.047567 -0.014641 0.082333 -0.511962 8.673325 -1.689173 2.857143 14.048004 0.000000 0.000000 0.000000 1.615029 0.299585 5.773298 -20.188839 -12.253784 4.480476 -47.833867 3.434843 -1.183802 0.573878 -41.197119 0.692115 0.000000 0.000000 0.000000 -2.064576 1.338942 5.376129 25.553503 2.816397 4.912229 44.303076 -10.177195 6.083733 -0.561739 28.300564 -3.509941 0.000000 0.000000 0.000000 
0.190965 36.031845 2.251590 179.903658 3.018204 -179.832092 -0.703670 -4.758572 11.949496 -4.860223 -3.946222 -11.815305 8.918449 3.524776 16.333001 -0.693843 1.224014 4.733662 0.000000 0.000000 0.000000 4.225508 -3.250534 11.523642 -4.068129 4.874309 -12.445445 -3.488918 5.814622 18.724475 11.048735 3.778876 -1.017988 0.000000 0.000000 0.000000 3.003339 -0.390727 -1.525299 -2.266435 -0.193483 -8.138625 0.712992 -2.692616 5.926848 0.023907 0.027379 0.045228 0.034562 -0.439066 8.781242 -1.517761 2.698219 14.149726 0.000000 0.000000 0.000000 1.561663 0.455153 5.863276 -20.142148 -12.251490 4.440057 -47.975846 4.475474 -0.774734 0.675985 -39.817332 0.682425 0.000000 0.000000 0.000000 -2.111003 1.402104 5.403692 25.463937 2.782871 4.995413 44.346393 -10.333112 6.603215 -0.567598 28.336858 -3.580166 0.000000 0.000000 0.000000 
0.197836 36.013416 2.250332 179.949325 3.274467 -179.786739 -0.652119 -4.636481 11.976983 -4.882127 -3.596665 -11.983248 9.239991 4.178418 16.686777 -1.253830 0.755304 4.444446 0.000000 0.000000 0.000000 4.277769 -3.059834 11.626582 -4.004499 5.287726 -12.684052 -3.715004 5.769596 18.979207 11.112626 3.787080 -1.297941 0.000000 0.000000 0.000000 3.028856 -0.286007 -1.531614 -2.255920 -0.192923 -8.095581 0.714490 -2.658794 6.006591 0.020499 0.044553 0.028186 0.087645 -0.420567 8.869415 -1.235170 2.516135 14.248654 0.000000 0.000000 0.000000 1.567126 0.369166 5.903844 -20.075965 -12.170252 4.509479 -48.190000 5.931523 -0.263358 0.748629 -37.927689 0.759774 0.000000 0.000000 0.000000 -2.124440 1.385194 5.453781 25.308030 2.789091 4.961540 44.415241 -10.516702 7.352526 -0.597232 28.320939 -3.601086 0.000000 0.000000 0.000000 
0.206036 35.989838 2.254081 -179.931334 3.396181 -179.824606 -0.539696 -4.680294 12.016869 -4.847669 -3.140194 -12.062788 9.283935 4.431438 17.063334 -1.530872 0.476176 4.175787 0.000000 0.000000 0.000000 4.341790 -3.165370 11.725489 -3.793753 5.813299 -12.851370 -4.094190 5.961997 19.118992 11.111520 3.718673 -1.471869 0.000000 0.000000 0.000000 3.074441 -0.283394 -1.385813 -2.230292 -0.222089 -8.096100 0.777094 -2.649681 6.086543 0.016621 0.030948 0.031166 0.137938 -0.411213 8.899610 -0.873038 2.265663 14.346075 0.000000 0.000000 0.000000 1.574792 0.375328 5.952034 -19.957693 -12.210499 4.437660 -48.497184 7.713300 0.346584 0.866038 -35.794125 0.805237 0.000000 0.000000 0.000000 -2.096004 1.409329 5.454890 25.175635 2.772876 5.010459 44.666439 -10.583570 7.601274 -0.563355 28.204190 -3.647775 0.000000 0.000000 0.000000 
0.206734 35.976051 2.279602 179.944503 3.555361 -179.863333 -0.643826 -4.713644 11.988250 -4.920365 -2.369534 -12.125256 9.531102 4.609462 17.331108 -1.977550 0.107209 3.876626 0.000000 0.000000 0.000000 4.180725 -3.209369 11.782915 -3.707095 6.377100 -12.977356 -4.364081 5.912543 19.158592 11.198703 3.681270 -1.520279 0.000000 0.000000 0.000000 3.003690 -0.315618 -1.273736 -2.326768 -0.230244 -8.027981 0.811728 -2.596882 6.126697 0.025864 0.030748 -0.041475 0.228741 -0.428724 9.082863 -0.465157 1.994335 14.476840 0.000000 0.000000 0.000000 1.612806 0.371214 6.136979 -19.747576 -12.176492 4.464406 -48.892693 9.564669 0.591383 0.963056 -33.716290 0.875146 0.000000 0.000000 0.000000 -2.031103 1.383997 5.644429 25.049939 2.784336 4.993890 44.983988 -10.652279 7.635563 -0.672484 27.900614 -3.809926 0.000000 0.000000 0.000000 
0.219889 35.976379 2.341209 179.952863 3.685415 -179.906609 -0.654086 -4.644950 11.965959 -5.010310 -1.736712 -12.127216 9.753464 4.666873 17.371755 -2.435224 -0.211367 3.813607 0.000000 0.000000 0.000000 4.164031 -3.196973 11.785294 -3.578675 6.791767 -13.042011 -4.588341 6.092418 19.081395 11.058091 3.569651 -1.570796 0.000000 0.000000 0.000000 3.044844 -0.318512 -1.165814 -2.353697 -0.236699 -7.946356 0.889885 -2.550076 6.188696 0.050976 0.033714 0.048761 0.289106 -0.347402 9.063617 -0.038088 1.699563 14.646343 0.000000 0.000000 0.000000 1.660277 0.431108 6.090423 -19.439360 -12.058416 4.427573 -49.490577 11.580351 0.674355 1.144168 -31.962348 0.868841 0.000000 0.000000 0.000000 -1.998717 1.463520 5.608700 24.978623 2.758858 4.996255 45.437844 -10.692857 6.769776 -0.693657 27.498864 -3.867018 0.000000 0.000000 0.000000 
0.239528 35.984787 2.422245 -179.947139 3.575994 -179.859098 -0.533560 -4.638826 11.881600 -5.063593 -1.378962 -12.197879 9.984047 4.649185 17.249271 -2.838930 -0.430768 3.821222 0.000000 0.000000 0.000000 4.282057 -3.212521 11.777124 -3.423453 6.976062 -13.156672 -4.786083 6.328095 18.943178 10.783282 3.434560 -1.475287 0.000000 0.000000 0.000000 3.180174 -0.382487 -1.110323 -2.321094 -0.258280 -7.873671 0.949964 -2.527359 6.254418 0.007875 0.025471 -0.006166 0.385167 -0.340235 9.240891 0.366836 1.415779 14.919133 0.000000 0.000000 0.000000 1.755453 0.491117 6.227323 -19.041430 -11.781888 4.298146 -50.325408 13.647611 0.067241 1.285842 -30.491935 0.927008 0.000000 0.000000 0.000000 -1.931642 1.493318 5.782428 25.028842 2.751224 4.887740 45.909321 -10.844109 5.458385 -0.764238 26.912509 -3.949939 0.000000 0.000000 0.000000 
0.258267 36.006248 2.514659 179.969337 3.242122 -179.882649 -0.581492 -4.683780 11.813009 -5.021465 -1.778440 -12.270170 10.245194 4.805232 16.909397 -3.123006 -0.510225 4.107654 0.000000 0.000000 0.000000 4.231276 -3.322549 11.802412 -3.368159 7.002975 -13.260578 -4.886298 6.078045 18.916260 10.749288 3.476754 -1.385503 0.000000 0.000000 0.000000 3.222926 -0.427731 -1.083672 -2.308799 -0.377821 -7.746146 0.990962 -2.606458 6.422708 -0.012181 0.061783 0.041173 0.506498 -0.353140 9.303830 0.702408 1.148260 15.234083 0.000000 0.000000 0.000000 1.873299 0.558209 6.220926 -18.643795 -11.249935 4.174548 -51.446481 15.607443 -1.627031 1.511104 -29.279139 0.826130 0.000000 0.000000 0.000000 -1.813283 1.581008 5.842630 25.149894 2.730004 4.799065 46.299353 -10.994247 3.139644 -0.843205 26.069604 -4.054438 0.000000 0.000000 0.000000 
0.283392 36.020821 2.625801 -179.967083 2.798100 -179.978954 -0.470984 -4.672458 11.793508 -4.947945 -2.397441 -12.318075 10.460323 5.006312 16.630718 -3.373920 -0.552035 4.485944 0.000000 0.000000 0.000000 4.317468 -3.527417 11.943471 -3.348752 7.137711 -13.535118 -4.695244 6.197718 19.013109 10.307753 3.328510 -1.313489 0.000000 0.000000 0.000000 3.350863 -0.604964 -0.986285 -2.208834 -0.252943 -7.612235 1.114630 -2.462555 6.488213 0.027163 0.000912 0.009963 0.551607 -0.275255 9.473180 0.946376 0.912394 15.614123 0.000000 0.000000 0.000000 1.910839 0.535602 6.386449 -18.250530 -10.721766 3.879393 -52.849750 17.396307 -4.280001 1.752482 -28.236827 0.703987 0.000000 0.000000 0.000000 -1.794292 1.535961 5.944524 25.359598 2.533282 4.728523 46.495242 -11.112327 -0.255699 -0.907233 24.917005 -4.109590 0.000000 0.000000 0.000000 
0.309904 36.038193 2.744939 -179.941416 2.289033 -179.961414 -0.402759 -4.686723 11.661172 -4.904744 -2.730726 -12.469206 10.731533 4.837728 16.355580 -3.589434 -0.589052 4.955481 0.000000 0.000000 0.000000 4.317095 -3.611169 11.725920 -3.182348 6.782897 -13.316047 -4.711248 5.727232 18.753821 10.324978 3.393771 -0.990918 0.000000 0.000000 0.000000 3.467470 -0.727169 -1.044516 -2.081028 -0.239622 -7.487503 1.199866 -2.435230 6.588687 0.025547 -0.003297 0.009683 0.632857 -0.221478 9.612158 1.073488 0.702986 16.027894 0.000000 0.000000 0.000000 1.980922 0.553522 6.495118 -17.980328 -10.012662 3.638215 -54.439913 18.818606 -7.975974 1.984308 -27.335324 0.481619 0.000000 0.000000 0.000000 -1.728195 1.569118 6.020290 25.624052 2.341634 4.615231 46.488378 -11.039664 -4.971635 -1.071262 23.456318 -4.081740 0.000000 0.000000 0.000000 
